<?xml version="1.0" standalone="no"?>
<!DOCTYPE svg PUBLIC "-//W3C//DTD SVG 20010904//EN"
 "http://www.w3.org/TR/2001/REC-SVG-20010904/DTD/svg10.dtd">
<svg version="1.0" xmlns="http://www.w3.org/2000/svg"
 width="900.000000pt" height="900.000000pt" viewBox="0 0 900.000000 900.000000"
 preserveAspectRatio="xMidYMid meet">

<g transform="translate(0.000000,900.000000) scale(0.100000,-0.100000)"
fill="#000000" stroke="none">
<path d="M6040 8958 c14 -14 111 -98 215 -188 105 -90 200 -172 213 -183 43
-39 21 -8 -80 115 -57 68 -121 146 -143 175 -57 73 -92 94 -167 100 l-63 5 25
-24z"/>
<path d="M5555 8961 c-25 -6 -16 -10 60 -25 115 -23 231 -66 314 -115 61 -36
165 -134 219 -206 13 -16 19 -21 14 -10 -20 40 -220 271 -259 298 -71 49 -134
67 -231 66 -48 -1 -100 -4 -117 -8z"/>
<path d="M6396 8942 c5 -5 41 -30 79 -57 39 -27 119 -97 179 -155 l110 -105
-38 70 c-35 64 -76 123 -138 199 -20 23 -37 31 -98 42 -90 16 -107 17 -94 6z"/>
<path d="M5150 8916 c-25 -7 -52 -15 -59 -17 -8 -3 38 -15 102 -27 267 -51
452 -157 584 -336 24 -32 43 -56 43 -54 0 2 -7 29 -16 59 -28 94 -74 171 -143
240 -107 107 -215 150 -376 148 -49 0 -110 -6 -135 -13z"/>
<path d="M4780 8855 c-99 -16 -843 -201 -1105 -275 -738 -209 -1766 -608
-2003 -777 -130 -92 -449 -394 -601 -568 -270 -309 -489 -669 -593 -973 -154
-455 -140 -959 38 -1302 70 -135 106 -177 177 -210 128 -60 213 -75 413 -75
l180 0 60 30 c64 33 39 3 404 466 561 711 670 843 986 1189 328 359 613 644
774 773 101 81 349 243 545 357 88 51 221 128 296 171 151 88 186 100 224 75
30 -20 36 -20 29 -1 -10 24 5 64 29 79 12 8 171 53 352 100 182 47 379 99 438
115 108 30 108 30 105 8 -2 -15 -16 -27 -48 -39 -25 -9 -40 -17 -35 -17 18 -1
169 27 255 48 91 22 160 27 160 11 0 -12 -29 -19 -288 -72 -117 -23 -208 -44
-203 -46 6 -2 209 17 452 43 242 26 443 45 446 41 19 -18 -35 -31 -219 -52
-280 -31 -459 -56 -453 -62 2 -3 96 0 207 7 112 6 293 16 403 21 226 12 474
35 609 56 50 7 201 30 336 49 134 20 246 37 247 39 2 1 -22 10 -52 20 -39 12
-63 27 -82 52 -27 33 -30 34 -101 34 -85 0 -128 16 -157 60 -23 35 -24 35 -89
15 -73 -22 -119 -19 -153 9 -41 34 -70 39 -128 21 -71 -21 -116 -19 -156 8
l-34 23 -55 -19 c-33 -11 -68 -17 -90 -13 -134 19 -131 20 -190 -18 -30 -20
-63 -37 -75 -38 -35 -2 -70 3 -80 13 -15 14 -45 11 -91 -12 -30 -14 -63 -20
-108 -20 -77 0 -138 10 -130 22 9 15 255 89 379 114 244 49 347 59 597 60 131
0 238 2 238 6 0 9 -63 66 -87 78 -35 18 -80 13 -140 -15 l-56 -27 -61 22 c-80
28 -123 27 -198 -5 l-61 -26 -38 21 c-69 39 -126 24 -242 -65 l-57 -44 -40 20
c-78 40 -156 21 -284 -67 -49 -34 -51 -34 -126 -27 -75 6 -77 6 -174 -40 -55
-25 -103 -46 -109 -46 -5 0 -7 9 -4 20 9 36 -12 151 -38 201 -69 139 -216 245
-440 321 -122 41 -118 42 76 28 276 -21 362 -42 468 -110 73 -47 124 -99 207
-209 63 -83 64 -83 64 -50 0 53 -27 154 -56 211 -32 63 -104 141 -162 175 -23
14 -71 34 -105 45 -58 18 -275 59 -300 57 -7 -1 -50 -7 -97 -14z m-34 -410
c86 -39 202 -113 264 -167 43 -38 132 -139 127 -145 -2 -1 -25 4 -52 12 -101
31 -181 10 -247 -63 -21 -23 -39 -38 -42 -34 -2 4 -20 50 -40 102 -43 109 -91
206 -147 295 -21 34 -39 65 -39 68 0 8 77 -22 176 -68z m-446 -133 c239 -99
285 -125 343 -199 l48 -62 -90 -46 c-50 -25 -95 -45 -101 -45 -5 0 -26 33 -46
73 -77 154 -169 251 -284 301 -25 11 -47 21 -49 22 -3 3 8 24 13 24 1 0 76
-31 166 -68z m-41 -283 l135 -93 -83 -38 c-46 -21 -86 -38 -90 -38 -5 0 -111
213 -130 263 -9 23 41 -5 168 -94z"/>
<path d="M6899 8778 c33 -40 74 -89 91 -108 l31 -35 -28 55 c-28 55 -122 160
-143 160 -6 0 16 -33 49 -72z"/>
<path d="M7110 8753 c0 -5 43 -53 96 -108 87 -92 93 -96 73 -55 -33 67 -170
200 -169 163z"/>
<path d="M7417 8608 c43 -56 126 -158 129 -158 5 0 -12 43 -36 90 -11 22 -35
50 -53 60 -37 23 -54 26 -40 8z"/>
<path d="M6908 8418 c-51 -22 -54 -38 -7 -38 47 0 247 -45 349 -79 478 -160
920 -563 1155 -1053 161 -337 201 -638 139 -1055 -10 -68 -21 -123 -25 -123
-3 0 -14 9 -24 20 -26 28 -45 112 -40 173 l5 52 -15 -45 c-13 -37 -13 -58 -5
-117 6 -40 9 -77 5 -82 -10 -17 -56 -20 -540 -36 -258 -9 -506 -17 -550 -18
-44 -2 196 -4 533 -5 364 -1 612 -6 612 -11 0 -5 -21 -66 -46 -136 -35 -94
-52 -129 -68 -135 -35 -14 -552 -67 -711 -72 -38 -2 102 -5 312 -8 l383 -5
-78 -140 -77 -140 -70 -7 c-108 -11 -673 -38 -830 -40 l-140 -1 180 -8 c99 -4
259 -12 355 -19 111 -7 222 -9 305 -3 72 4 138 8 147 7 21 -1 243 330 308 460
179 358 205 776 79 1275 -43 171 -73 245 -120 299 -38 43 -64 101 -74 162 -10
64 -32 95 -86 124 -61 34 -69 45 -78 108 -13 92 -22 101 -118 113 l-52 7 5 41
c9 64 -18 92 -110 112 l-73 16 -17 53 c-9 30 -25 65 -37 79 -19 26 -31 29
-130 42 -44 5 -46 7 -55 48 -14 63 -43 76 -129 55 l-66 -16 -39 42 -39 41 -92
4 c-79 3 -98 7 -124 27 -35 26 -106 54 -139 54 -11 -1 -42 -10 -68 -22z"/>
<path d="M7701 8408 c27 -51 61 -100 66 -95 7 8 -56 117 -68 117 -6 0 -5 -10
2 -22z"/>
<path d="M7405 8004 c-42 -20 -110 -30 -440 -69 -699 -81 -943 -102 -1600
-140 -143 -8 -277 -15 -298 -15 -23 0 -36 -4 -32 -10 4 -6 218 -10 608 -10
633 0 675 2 1337 60 292 26 670 72 664 81 -2 4 -19 10 -37 14 -35 8 -117 51
-117 63 0 4 -8 17 -18 29 l-17 21 -50 -24z"/>
<path d="M5503 7893 c9 -2 25 -2 35 0 9 3 1 5 -18 5 -19 0 -27 -2 -17 -5z"/>
<path d="M5360 7880 c-41 -6 -42 -7 -10 -8 19 0 55 3 80 7 40 8 41 8 10 8 -19
0 -55 -3 -80 -7z"/>
<path d="M7649 7875 c-27 -27 -188 -82 -319 -109 -258 -52 -615 -94 -1127
-131 -117 -8 -239 -15 -270 -16 l-58 -1 45 -10 c57 -12 879 -3 1085 12 308 22
791 86 834 110 11 6 4 11 -25 20 -51 15 -80 40 -108 91 -25 49 -36 55 -57 34z"/>
<path d="M7867 7690 c-47 -37 -131 -69 -262 -100 -296 -71 -687 -114 -1420
-155 -154 -9 -284 -18 -290 -20 -12 -4 934 3 1245 10 237 5 444 21 723 56 93
11 171 18 174 16 10 -11 -38 -134 -60 -155 -13 -12 -36 -24 -52 -27 -101 -17
-451 -36 -840 -45 -493 -11 -721 -22 -1010 -50 l-190 -18 840 -1 c876 -1 1102
6 1338 39 77 11 142 18 144 17 1 -2 -4 -23 -12 -48 -7 -24 -19 -62 -24 -84
l-10 -40 -353 -1 c-229 -1 -432 -7 -578 -18 -220 -17 -1010 -93 -1040 -100 -8
-2 410 -4 930 -5 777 -1 967 2 1070 14 69 8 129 15 133 15 4 0 -3 15 -17 33
-40 52 -75 138 -82 199 -5 43 -11 59 -25 63 -51 16 -129 139 -129 202 0 12
-15 29 -37 44 -25 16 -53 51 -83 101 -25 43 -48 78 -51 78 -4 0 -18 -9 -32
-20z"/>
<path d="M5446 7172 c5 -4 26 -22 46 -41 21 -19 40 -32 44 -29 10 11 -16 47
-46 63 -30 16 -61 21 -44 7z"/>
<path d="M8317 6953 c-3 -5 -10 -51 -17 -103 -7 -52 -16 -98 -20 -103 -11 -13
-218 -36 -418 -48 -103 -5 -491 -13 -862 -17 -371 -3 -643 -9 -605 -13 65 -6
1464 -25 1725 -23 80 0 147 8 220 24 58 12 107 24 109 26 2 2 -21 31 -52 64
-60 65 -83 119 -72 171 6 27 2 38 -8 22z"/>
<path d="M8416 6583 c-3 -21 -6 -59 -6 -84 0 -78 4 -77 -333 -94 -164 -8 -540
-19 -838 -24 -298 -6 -543 -12 -545 -14 -9 -9 280 -17 813 -24 547 -6 567 -6
762 17 135 16 201 27 201 35 0 15 -41 219 -45 223 -1 1 -5 -14 -9 -35z"/>
<path d="M3490 6053 c0 -48 46 -129 121 -214 33 -37 59 -70 59 -75 0 -10 -172
174 -232 248 -28 34 -48 52 -48 43 0 -37 36 -86 130 -180 55 -54 98 -100 96
-102 -5 -6 -143 106 -222 180 -34 31 -64 57 -68 57 -33 0 49 -89 154 -166 74
-55 98 -80 85 -92 -2 -3 -44 20 -92 50 -137 85 -190 114 -174 94 18 -21 174
-133 207 -148 47 -22 23 -27 -28 -7 -29 12 -75 30 -103 41 -64 25 -47 8 34
-36 68 -36 68 -52 -2 -41 -39 7 -41 6 -27 -10 8 -10 30 -25 49 -32 24 -11 31
-17 21 -23 -16 -10 39 -68 83 -87 15 -7 27 -19 27 -27 0 -8 9 -17 19 -21 11
-3 37 -23 58 -44 22 -20 47 -40 57 -44 10 -4 14 -12 10 -18 -7 -12 15 -34 71
-70 17 -10 26 -19 21 -19 -5 0 6 -13 24 -30 18 -16 40 -30 47 -30 7 0 13 -7
13 -15 0 -8 10 -20 22 -26 12 -6 27 -16 32 -20 43 -36 90 -69 97 -69 5 0 9 -7
9 -15 0 -9 11 -20 24 -25 14 -5 30 -18 36 -30 6 -11 17 -20 24 -20 7 0 20 -8
30 -18 9 -11 41 -27 71 -37 30 -11 55 -23 55 -29 0 -5 7 -18 17 -28 9 -10 14
-20 12 -23 -7 -7 -267 -53 -342 -61 -37 -4 -67 -11 -67 -15 0 -9 39 -22 56
-18 40 7 43 -3 9 -32 -40 -35 -44 -49 -15 -49 12 0 20 -7 20 -16 0 -13 7 -15
42 -9 l41 7 -21 -27 c-39 -49 -20 -60 43 -25 l36 20 -11 -20 c-11 -21 3 -29
16 -9 4 8 9 7 15 -2 7 -11 12 -12 29 -1 25 15 25 15 44 -3 12 -13 20 -14 36
-5 25 13 41 5 33 -17 -9 -24 77 50 102 87 22 33 37 37 55 15 7 -8 23 -15 36
-15 15 0 24 -6 24 -15 0 -20 23 -19 50 3 27 22 18 52 -17 52 -36 0 -23 24 18
32 19 3 59 11 91 16 80 15 155 50 186 87 15 18 47 43 71 55 25 12 69 38 98 57
37 25 60 34 78 31 50 -10 19 64 -32 75 -60 13 -60 21 -4 86 65 75 140 143 206
188 51 34 125 90 160 122 11 9 61 47 110 84 97 71 124 103 161 197 25 60 62
275 51 287 -4 3 -16 -5 -27 -18 l-21 -24 5 33 c3 17 4 32 1 32 -2 0 -19 -25
-37 -55 -18 -30 -38 -53 -44 -51 -5 2 -23 -16 -38 -40 -15 -24 -33 -44 -40
-44 -6 0 -31 -25 -55 -55 -24 -30 -52 -55 -61 -55 -10 0 -28 -16 -41 -35 -13
-19 -32 -35 -41 -35 -10 0 -29 -17 -43 -37 -13 -21 -39 -44 -57 -52 -18 -8
-42 -22 -53 -32 -11 -10 -35 -31 -54 -46 -18 -15 -49 -43 -70 -61 -20 -19 -52
-42 -72 -52 -19 -10 -49 -31 -66 -47 -16 -15 -66 -59 -109 -97 -43 -38 -98
-89 -121 -112 -38 -40 -45 -43 -69 -34 -15 6 -104 70 -198 143 -196 153 -228
175 -351 247 -206 121 -273 169 -309 225 -38 56 -96 191 -96 221 0 13 -3 15
-11 7 -22 -22 0 -100 48 -171 83 -124 68 -111 -38 33 -41 55 -91 133 -112 173
-21 39 -40 72 -43 72 -2 0 -4 -17 -4 -37z"/>
<path d="M6903 6013 c15 -2 37 -2 50 0 12 2 0 4 -28 4 -27 0 -38 -2 -22 -4z"/>
<path d="M7008 5663 c18 -2 45 -2 60 0 15 2 0 4 -33 4 -33 0 -45 -2 -27 -4z"/>
<path d="M8066 5155 c-48 -62 -72 -85 -89 -85 -137 0 -500 -14 -527 -20 -20
-5 80 -8 237 -9 197 -1 272 -4 275 -13 2 -6 21 6 41 28 35 38 141 184 134 184
-2 0 -34 -38 -71 -85z"/>
<path d="M7558 4871 c-135 -9 -250 -20 -255 -24 -4 -5 106 -7 244 -5 246 3
253 4 275 26 21 21 21 22 3 21 -11 -1 -131 -9 -267 -18z"/>
<path d="M3528 4251 c-28 -25 -33 -37 -38 -88 -5 -57 -6 -58 -37 -61 -27 -3
-33 -7 -33 -28 0 -21 5 -24 35 -24 l35 0 0 -155 0 -155 40 0 40 0 0 155 0 155
45 0 c41 0 45 2 45 24 0 22 -5 25 -42 28 -41 3 -43 4 -46 39 -4 52 24 84 72
81 34 -2 36 -1 36 28 l0 30 -60 0 c-52 0 -64 -4 -92 -29z"/>
<path d="M2080 4179 c0 -83 -1 -90 -17 -83 -10 5 -53 9 -95 9 -88 0 -118 -15
-155 -81 -17 -30 -23 -55 -23 -108 0 -80 23 -132 73 -162 43 -25 152 -26 190
-1 23 15 27 15 27 2 0 -11 11 -15 45 -15 l45 0 0 265 0 265 -45 0 -45 0 0 -91z
m-27 -157 c24 -23 27 -32 27 -93 0 -58 -4 -72 -26 -98 -53 -64 -139 -47 -169
33 -29 76 4 167 67 184 43 11 67 5 101 -26z"/>
<path d="M3740 4005 l0 -265 45 0 45 0 0 265 0 265 -45 0 -45 0 0 -265z"/>
<path d="M6152 4261 c-8 -5 -12 -21 -10 -37 3 -26 7 -29 45 -32 38 -3 43 -1
49 23 4 15 1 31 -6 40 -14 16 -57 20 -78 6z"/>
<path d="M6640 4179 c0 -83 -1 -90 -17 -83 -10 5 -53 9 -95 9 -88 0 -118 -15
-155 -81 -17 -30 -23 -55 -23 -108 0 -80 23 -132 73 -162 43 -25 152 -26 190
-1 23 15 27 15 27 2 0 -11 11 -15 45 -15 l45 0 0 265 0 265 -45 0 -45 0 0 -91z
m-27 -157 c24 -23 27 -32 27 -93 0 -58 -4 -72 -26 -98 -53 -64 -139 -47 -169
33 -29 76 4 167 67 184 43 11 67 5 101 -26z"/>
<path d="M410 4220 l0 -30 75 0 75 0 0 -225 0 -225 45 0 45 0 0 225 0 225 80
0 80 0 0 30 0 30 -200 0 -200 0 0 -30z"/>
<path d="M5650 3996 l0 -256 45 0 45 0 0 105 0 105 34 0 c46 0 76 -27 138
-125 l53 -85 49 0 c39 0 47 3 42 15 -9 24 -106 167 -133 196 l-24 26 32 13
c59 25 88 117 57 185 -24 52 -68 68 -209 73 l-129 5 0 -257z m229 166 c31 -23
39 -73 17 -107 -17 -26 -70 -45 -123 -45 l-33 0 0 91 0 92 57 -6 c32 -3 68
-14 82 -25z"/>
<path d="M4032 4231 c-18 -11 -12 -51 9 -64 9 -5 28 -7 43 -3 24 6 27 11 24
39 -3 28 -7 32 -33 35 -16 1 -36 -2 -43 -7z"/>
<path d="M4177 4233 c-4 -3 -7 -19 -7 -34 0 -53 81 -51 88 1 2 12 -2 27 -10
31 -16 10 -62 12 -71 2z"/>
<path d="M950 4097 c-31 -11 -35 -17 -38 -49 -2 -21 0 -38 4 -38 4 0 27 9 51
21 80 39 134 27 148 -32 6 -26 5 -26 -57 -33 -142 -16 -178 -42 -178 -128 0
-38 5 -54 24 -73 33 -33 107 -43 166 -22 26 10 46 12 48 7 2 -6 21 -10 43 -10
l39 0 0 145 c0 156 -6 183 -50 208 -33 20 -146 22 -200 4z m170 -202 c0 -56
-47 -105 -100 -105 -26 0 -60 34 -60 60 0 34 38 51 153 69 4 0 7 -10 7 -24z"/>
<path d="M1448 4094 c-16 -8 -28 -10 -28 -4 0 5 -20 10 -45 10 l-45 0 0 -180
0 -180 45 0 45 0 0 118 c0 132 9 159 59 184 40 20 67 12 96 -26 17 -23 21 -46
24 -152 l3 -124 39 0 39 0 0 130 c0 199 -25 240 -147 240 -32 -1 -70 -8 -85
-16z"/>
<path d="M2375 4087 c-22 -12 -50 -40 -63 -62 -19 -34 -22 -51 -20 -117 3 -86
20 -118 79 -153 41 -24 166 -28 217 -6 27 11 32 19 32 47 0 19 -3 34 -7 34 -4
0 -26 -10 -51 -21 -76 -37 -156 -10 -181 62 l-10 29 140 0 139 0 0 43 c-1 58
-32 122 -72 147 -48 29 -149 28 -203 -3z m165 -65 c11 -13 20 -33 20 -43 0
-17 -9 -19 -90 -19 -97 0 -104 5 -74 49 21 29 68 49 100 43 13 -2 33 -16 44
-30z"/>
<path d="M2868 4094 c-16 -8 -28 -10 -28 -4 0 5 -20 10 -45 10 l-45 0 0 -180
0 -180 45 0 45 0 0 125 c0 123 0 125 28 156 34 38 74 41 105 10 20 -19 22 -34
25 -156 l4 -135 38 0 38 0 3 124 c2 68 7 128 12 132 4 4 17 -2 30 -13 40 -36
53 -37 18 0 -18 19 -31 40 -27 45 10 17 60 30 83 21 37 -14 47 -47 51 -181 l4
-128 38 0 c27 0 40 5 42 16 2 10 50 -33 138 -123 717 -732 1225 -1250 1485
-1513 480 -486 491 -498 514 -558 12 -29 21 -54 21 -57 0 -2 -13 -6 -29 -10
-16 -3 -35 -13 -41 -21 -11 -12 -10 -55 1 -93 2 -8 -11 -18 -36 -27 -48 -17
-72 -46 -80 -97 -8 -43 -16 -50 -154 -135 -140 -86 -139 -76 -35 -229 137
-201 216 -303 297 -380 133 -126 248 -175 412 -177 88 -1 107 2 155 25 31 14
72 40 92 58 72 63 120 61 190 -6 l38 -37 23 22 24 22 44 -62 c24 -35 58 -79
75 -98 53 -60 59 -79 63 -217 1 -22 4 -23 110 -23 94 0 115 3 145 21 30 17 51
21 124 20 101 -1 136 15 180 79 l23 35 -63 7 c-183 20 -278 91 -441 325 -41
60 -89 135 -107 168 -60 109 -95 134 -187 136 l-58 1 44 14 c69 21 109 6 173
-67 48 -54 123 -159 131 -183 2 -5 8 -7 14 -3 7 4 2 53 -14 149 -31 186 -27
182 -178 186 l-114 4 10 25 c18 48 11 68 -46 116 -61 53 -126 86 -168 87 -23
0 -31 7 -48 48 -19 42 -21 60 -15 172 9 203 35 318 242 1077 68 250 88 335 64
275 -6 -13 -55 -186 -111 -385 -55 -199 -109 -387 -120 -417 l-19 -55 5 50 c4
28 8 66 10 85 5 34 5 34 -4 5 -5 -16 -16 -64 -26 -105 -22 -101 -25 -110 -34
-110 -14 0 -31 100 -32 183 0 45 -4 105 -9 132 -5 36 -8 4 -9 -114 -1 -116 -4
-162 -12 -154 -11 11 -80 259 -73 266 2 2 -27 154 -66 338 -39 184 -74 347
-77 362 -3 15 -8 26 -10 23 -5 -5 57 -357 103 -578 19 -91 39 -202 44 -245 6
-43 20 -125 32 -182 17 -87 20 -126 15 -235 -7 -152 -23 -229 -50 -234 -21 -4
-147 48 -147 61 0 5 5 17 11 28 5 11 14 46 19 77 6 31 19 69 30 84 11 15 20
39 20 53 0 35 -23 86 -48 109 -31 27 -101 32 -146 11 -44 -21 -68 -53 -90
-122 -10 -29 -21 -53 -25 -53 -4 0 -16 12 -27 28 -15 19 -24 57 -33 132 -7 58
-30 222 -52 365 -96 633 -139 917 -150 1009 -7 55 -15 94 -16 89 -4 -10 158
-1305 172 -1386 8 -49 -16 -25 -42 41 -14 35 -27 61 -29 59 -2 -2 6 -33 18
-70 12 -36 18 -70 14 -74 -11 -11 0 -24 -666 830 -332 427 -606 775 -608 773
-2 -2 264 -352 592 -777 327 -426 593 -775 591 -778 -3 -2 -15 3 -28 12 -13 8
-356 352 -762 764 -406 411 -837 846 -957 965 l-218 217 0 113 c0 175 -27 212
-152 206 -52 -3 -72 -8 -90 -25 l-23 -22 -28 25 c-23 19 -39 24 -85 24 -31 -1
-69 -8 -84 -16z m2997 -2935 c23 -28 29 -30 51 -21 31 15 30 10 -7 -33 -32
-36 -32 -36 -47 -14 -8 11 -35 34 -59 49 -39 25 -42 29 -26 39 32 19 60 12 88
-20z m-149 -53 c-7 -51 -6 -55 21 -74 22 -17 24 -21 10 -22 -21 0 -59 18 -69
34 -14 21 -8 63 13 90 11 14 23 26 26 26 3 0 2 -24 -1 -54z"/>
<path d="M4525 4096 c-62 -28 -95 -93 -95 -187 0 -72 25 -126 73 -155 43 -25
152 -26 190 -1 27 17 27 17 27 -7 0 -87 -92 -136 -190 -102 -64 22 -70 21 -70
-19 0 -31 3 -35 38 -42 65 -14 177 -7 218 13 81 40 93 84 94 327 l0 178 -57 0
c-32 0 -89 2 -128 4 -47 3 -80 0 -100 -9z m175 -83 c15 -20 20 -41 20 -89 0
-52 -4 -67 -25 -92 -45 -53 -124 -51 -160 4 -45 70 -15 188 55 210 43 14 82 2
110 -33z"/>
<path d="M5005 4087 c-22 -12 -50 -40 -63 -62 -19 -34 -22 -51 -20 -117 3 -86
20 -118 79 -153 41 -24 166 -28 217 -6 27 11 32 19 32 47 0 19 -3 34 -7 34 -4
0 -26 -10 -51 -21 -76 -37 -156 -10 -181 62 l-10 29 140 0 139 0 0 43 c-1 58
-32 122 -72 147 -48 29 -149 28 -203 -3z m165 -65 c11 -13 20 -33 20 -43 0
-17 -9 -19 -90 -19 -97 0 -104 5 -74 49 21 29 68 49 100 43 13 -2 33 -16 44
-30z"/>
<path d="M6988 4094 c-16 -8 -28 -10 -28 -4 0 5 -20 10 -45 10 l-45 0 0 -180
0 -180 45 0 45 0 0 118 c0 132 9 159 59 184 40 20 67 12 96 -26 17 -23 21 -46
24 -152 l3 -124 39 0 39 0 0 130 c0 199 -25 240 -147 240 -32 -1 -70 -8 -85
-16z"/>
<path d="M7390 4097 c-31 -11 -35 -17 -38 -49 -2 -21 0 -38 4 -38 4 0 27 9 51
21 80 39 134 27 148 -32 6 -26 5 -26 -57 -33 -142 -16 -178 -42 -178 -128 0
-38 5 -54 24 -73 33 -33 107 -43 166 -22 26 10 46 12 48 7 2 -6 21 -10 43 -10
l39 0 0 145 c0 156 -6 183 -50 208 -33 20 -146 22 -200 4z m170 -202 c0 -56
-47 -105 -100 -105 -26 0 -60 34 -60 60 0 34 38 51 153 69 4 0 7 -10 7 -24z"/>
<path d="M8378 4094 c-16 -8 -28 -10 -28 -4 0 5 -20 10 -45 10 l-45 0 0 -180
0 -180 45 0 45 0 0 118 c0 132 9 159 59 184 40 20 67 12 96 -26 17 -23 21 -46
24 -152 l3 -124 39 0 39 0 0 130 c0 199 -25 240 -147 240 -32 -1 -70 -8 -85
-16z"/>
<path d="M3970 3959 c0 -149 8 -180 52 -208 35 -22 119 -25 163 -7 25 11 41
13 43 6 2 -5 21 -10 43 -10 l39 0 0 180 0 180 -40 0 -40 0 0 -105 c0 -115 -13
-162 -51 -189 -35 -24 -67 -20 -100 13 -29 29 -29 30 -29 155 l0 126 -40 0
-40 0 0 -141z"/>
<path d="M6140 3920 l0 -180 45 0 45 0 0 180 0 180 -45 0 -45 0 0 -180z"/>
<path d="M7780 3959 c0 -149 8 -180 52 -208 35 -22 119 -25 163 -7 25 11 41
13 43 6 2 -5 21 -10 43 -10 l39 0 0 180 0 180 -40 0 -40 0 0 -105 c0 -115 -13
-162 -51 -189 -35 -24 -67 -20 -100 13 -29 29 -29 30 -29 155 l0 126 -40 0
-40 0 0 -141z"/>
<path d="M6481 3210 c-69 -251 -106 -408 -87 -365 11 23 177 657 173 661 -2 2
-41 -131 -86 -296z"/>
<path d="M5242 3260 c0 -19 2 -27 5 -17 2 9 2 25 0 35 -3 9 -5 1 -5 -18z"/>
<path d="M1330 3199 c0 -15 7 -43 15 -62 18 -45 18 -47 1 -47 -8 0 -37 26 -65
57 -57 63 -66 60 -23 -8 15 -24 31 -50 36 -56 15 -26 -13 -12 -74 37 -34 28
-64 50 -67 50 -7 0 14 -33 56 -89 23 -30 41 -58 41 -63 0 -20 -107 39 -162 90
-23 21 -28 23 -28 9 0 -9 32 -52 71 -94 61 -68 68 -78 50 -81 -12 -2 -60 17
-106 43 -47 25 -85 42 -85 37 0 -17 66 -83 114 -115 27 -18 48 -36 45 -42 -2
-5 -23 -8 -46 -7 -56 5 -58 -17 -5 -49 20 -12 38 -24 40 -25 2 -1 -2 -11 -10
-23 -11 -18 -9 -24 16 -50 16 -17 25 -34 21 -41 -4 -7 2 -25 14 -41 11 -15 21
-35 21 -43 0 -8 9 -21 19 -28 11 -8 25 -36 32 -63 6 -28 17 -57 24 -65 7 -8
16 -25 19 -37 4 -11 13 -24 21 -27 8 -3 15 -15 15 -26 0 -12 20 -43 45 -69 25
-26 45 -56 45 -65 0 -24 27 -72 48 -88 10 -7 22 -25 25 -40 4 -15 16 -30 27
-33 11 -3 20 -10 20 -15 0 -9 90 -100 100 -100 3 0 16 -18 29 -40 l22 -40 -23
-9 c-172 -63 -224 -84 -241 -93 -18 -9 -19 -17 -14 -91 4 -44 13 -89 20 -101
8 -12 17 -33 20 -48 16 -61 187 -168 271 -168 42 0 48 7 112 138 80 165 70
160 151 77 77 -78 199 -185 212 -185 4 0 13 -11 21 -24 23 -45 278 -219 346
-238 18 -5 52 -24 74 -43 23 -19 48 -35 55 -35 7 0 19 -9 26 -20 8 -10 26 -21
40 -24 15 -2 46 -17 69 -32 33 -22 45 -25 59 -17 14 9 21 5 41 -24 13 -19 32
-39 42 -44 18 -10 19 -7 13 38 l-6 48 28 -34 c60 -73 92 -106 97 -100 3 3 -5
33 -19 67 -14 34 -25 72 -25 84 1 19 12 11 68 -48 63 -67 112 -105 112 -87 0
4 -13 28 -29 52 -38 57 -66 119 -57 128 3 4 32 -18 64 -48 118 -114 164 -134
74 -31 -33 37 -65 78 -72 92 l-13 24 29 -18 c16 -10 38 -27 49 -36 33 -29 89
-60 108 -60 12 0 -2 16 -40 44 -66 50 -127 112 -136 139 -9 24 -5 22 71 -23
37 -22 83 -42 102 -46 29 -5 25 -1 -27 26 -35 17 -84 51 -110 75 l-48 44 40
-14 c71 -25 83 -16 22 17 -69 37 -170 121 -328 273 -134 129 -262 228 -409
317 -102 61 -204 151 -220 194 -11 27 -3 61 22 96 36 53 58 113 58 166 0 30
-3 52 -7 50 -189 -97 -269 -117 -310 -79 -48 45 -138 167 -308 416 -97 143
-193 279 -212 303 -19 23 -54 84 -79 135 l-45 92 4 -47 c3 -27 1 -48 -4 -48
-13 0 -56 61 -78 110 -18 39 -21 41 -21 19z"/>
<path d="M5986 2613 c3 -131 10 -278 15 -328 l8 -90 -5 109 c-2 60 -4 207 -4
328 0 139 -4 218 -10 218 -7 0 -8 -81 -4 -237z"/>
<path d="M5233 2250 c6 -16 13 -28 15 -26 6 6 -10 56 -18 56 -5 0 -3 -13 3
-30z"/>
<path d="M6062 2015 c0 -16 2 -22 5 -12 2 9 2 23 0 30 -3 6 -5 -1 -5 -18z"/>
<path d="M6053 1890 c0 -25 2 -35 4 -22 2 12 2 32 0 45 -2 12 -4 2 -4 -23z"/>
<path d="M4993 969 c14 -102 113 -279 257 -459 135 -168 183 -214 272 -260
119 -62 208 -82 368 -84 131 -1 137 0 201 30 70 34 149 101 149 127 0 24 -36
57 -62 57 -12 0 -61 -20 -109 -45 -254 -130 -433 -94 -707 144 -110 96 -225
249 -318 423 -45 84 -55 96 -51 67z"/>
</g>
</svg>
